# xmcd
#
# Track frame offsets: 
#        150
#        18222
#        33411
#        59394
#        90084
#        115896
#        126652
#        148965
#        174112
#        186090
#        212305
#
# Disc length: 3122 seconds
#
# Revision: 2
# Processed by: cddbd v1.5.2PL0 Copyright (c) Steve Scherf et al.
# Submitted via: ExactAudioCopy v0.99pb4
#
DISCID=8e0c300b
DTITLE=Matt Schofield Trio - Ear To The Ground
DYEAR=2007
DGENRE=Blues
TTITLE0=Pack It Up
TTITLE1=Troublemaker
TTITLE2=Ear To The Ground
TTITLE3=Heart Don't Need A Compass
TTITLE4=Once In A While
TTITLE5=Room At The Back
TTITLE6=Someone
TTITLE7=Searchin' (Give Me A Sign)
TTITLE8=Move Along
TTITLE9=Cookie Jar
TTITLE10=When It All Comes Down
EXTD=
EXTT0=
EXTT1=
EXTT2=
EXTT3=
EXTT4=
EXTT5=
EXTT6=
EXTT7=
EXTT8=
EXTT9=
EXTT10=
PLAYORDER=
